<svg width="1200" height="800" viewBox="0 0 1200 800" fill="none" xmlns="http://www.w3.org/2000/svg">
  <rect width="1200" height="800" fill="#F5F7FA"/>
  <rect x="80" y="120" width="1040" height="560" rx="24" fill="white" stroke="#D9E1EA"/>
  <rect x="140" y="180" width="380" height="440" rx="16" fill="#0D2A52" opacity="0.92"/>
  <rect x="180" y="230" width="300" height="18" rx="9" fill="#FFFFFF" opacity="0.85"/>
  <rect x="180" y="270" width="230" height="12" rx="6" fill="#FFFFFF" opacity="0.45"/>
  <rect x="180" y="300" width="260" height="12" rx="6" fill="#FFFFFF" opacity="0.45"/>
  <rect x="180" y="420" width="150" height="36" rx="10" fill="#B9945A"/>
  <rect x="560" y="210" width="500" height="190" rx="14" fill="#F5F7FA" stroke="#D9E1EA"/>
  <rect x="600" y="250" width="210" height="10" rx="5" fill="#0D2A52" opacity="0.75"/>
  <rect x="600" y="276" width="340" height="9" rx="4.5" fill="#334155" opacity="0.45"/>
  <rect x="600" y="300" width="295" height="9" rx="4.5" fill="#334155" opacity="0.45"/>
  <rect x="560" y="430" width="235" height="190" rx="14" fill="#F5F7FA" stroke="#D9E1EA"/>
  <rect x="825" y="430" width="235" height="190" rx="14" fill="#F5F7FA" stroke="#D9E1EA"/>
  <circle cx="640" cy="500" r="34" fill="#0D2A52" opacity="0.15"/>
  <circle cx="905" cy="500" r="34" fill="#0D2A52" opacity="0.15"/>
  <rect x="607" y="550" width="120" height="10" rx="5" fill="#334155" opacity="0.4"/>
  <rect x="872" y="550" width="120" height="10" rx="5" fill="#334155" opacity="0.4"/>
</svg>
